<svg width="171" height="171" viewBox="0 0 171 171" fill="none" xmlns="http://www.w3.org/2000/svg">
<path d="M138.938 0H32.0625C14.3549 0 0 14.3549 0 32.0625V138.938C0 156.645 14.3549 171 32.0625 171H138.938C156.645 171 171 156.645 171 138.938V32.0625C171 14.3549 156.645 0 138.938 0Z" fill="#2563EB"/>
<path d="M51.1105 110.519C51.0564 108.476 50.7702 106.47 50.8285 104.416C51.1974 91.4423 55.8071 80.8363 64.7609 71.5231C68.079 68.0716 70.511 66.6232 71.6372 61.8148C73.414 54.2296 71.3682 44.1644 68.1484 37.1728C66.4888 33.5688 64.4435 30.3576 62.3738 27C78.0244 28.2473 91.7201 39.4017 100.183 52.0606C101.123 53.4669 102.303 54.7969 103.029 56.328C116.066 57.9586 127.583 61.0449 138.955 68.1124C141.05 69.4141 142.989 70.9222 145 72.3405C136.022 87.0335 119.785 97.1734 103.336 101.13C100.027 101.926 96.5615 102.622 93.1451 102.578C94.1654 101.468 98.5903 93.2059 99.2455 91.7578C93.4689 90.8118 85.244 91.6583 80.0711 94.0398C70.6641 98.3713 66.7502 108.029 71.1624 117.533C74.6907 124.645 80.8062 129.735 87.6499 133.518C89.1455 134.345 90.8202 135.365 92.4766 135.798C91.4857 135.872 90.5146 136.185 89.537 136.358C83.0433 137.513 75.0413 135.285 69.3229 132.399C65.0997 130.268 61.4766 127.275 58.1883 123.916C47.7035 125.103 41.3995 131.493 35 139C35.6615 126.841 42.1249 117.906 51.1105 110.519ZM121.278 67.9952C117.747 68.8789 118.43 73.7494 122.482 73.5053C125.912 72.6351 125.122 67.6563 121.278 67.9952Z" fill="white"/>
</svg>
